<mxfile host="app.diagrams.net" modified="2023-03-29T19:28:18.206Z" agent="Mozilla/5.0 (Windows NT 10.0; Win64; x64) AppleWebKit/537.36 (KHTML, like Gecko) Chrome/111.0.0.0 Safari/537.36" version="21.1.2" etag="Uf5_20rIwJmIvwiYhrWJ" type="device">
  <diagram id="UPdn_kfca01cycpT5D_T" name="Page-1">
    <mxGraphModel dx="882" dy="596" grid="1" gridSize="10" guides="1" tooltips="1" connect="1" arrows="1" fold="1" page="1" pageScale="1" pageWidth="850" pageHeight="1100" math="0" shadow="0">
      <root>
        <mxCell id="0" />
        <mxCell id="1" parent="0" />
        <mxCell id="51NOANYsrowO0WrMgLDv-1" value="Rider" style="rounded=1;whiteSpace=wrap;html=1;" vertex="1" parent="1">
          <mxGeometry x="80" y="80" width="120" height="60" as="geometry" />
        </mxCell>
        <mxCell id="51NOANYsrowO0WrMgLDv-10" style="edgeStyle=orthogonalEdgeStyle;rounded=0;orthogonalLoop=1;jettySize=auto;html=1;exitX=0.5;exitY=1;exitDx=0;exitDy=0;entryX=0.5;entryY=0;entryDx=0;entryDy=0;" edge="1" parent="1" source="51NOANYsrowO0WrMgLDv-2" target="51NOANYsrowO0WrMgLDv-5">
          <mxGeometry relative="1" as="geometry" />
        </mxCell>
        <mxCell id="51NOANYsrowO0WrMgLDv-2" value="Driver" style="rounded=1;whiteSpace=wrap;html=1;" vertex="1" parent="1">
          <mxGeometry x="480" y="80" width="120" height="60" as="geometry" />
        </mxCell>
        <mxCell id="51NOANYsrowO0WrMgLDv-3" value="CDN" style="rounded=1;whiteSpace=wrap;html=1;" vertex="1" parent="1">
          <mxGeometry x="280" y="200" width="120" height="60" as="geometry" />
        </mxCell>
        <mxCell id="51NOANYsrowO0WrMgLDv-8" style="edgeStyle=orthogonalEdgeStyle;rounded=0;orthogonalLoop=1;jettySize=auto;html=1;exitX=0.5;exitY=0;exitDx=0;exitDy=0;entryX=0.5;entryY=1;entryDx=0;entryDy=0;" edge="1" parent="1" source="51NOANYsrowO0WrMgLDv-4" target="51NOANYsrowO0WrMgLDv-1">
          <mxGeometry relative="1" as="geometry" />
        </mxCell>
        <mxCell id="51NOANYsrowO0WrMgLDv-11" style="edgeStyle=orthogonalEdgeStyle;rounded=0;orthogonalLoop=1;jettySize=auto;html=1;exitX=1;exitY=0.5;exitDx=0;exitDy=0;entryX=0;entryY=0.5;entryDx=0;entryDy=0;" edge="1" parent="1" source="51NOANYsrowO0WrMgLDv-4" target="51NOANYsrowO0WrMgLDv-3">
          <mxGeometry relative="1" as="geometry" />
        </mxCell>
        <mxCell id="51NOANYsrowO0WrMgLDv-13" style="edgeStyle=orthogonalEdgeStyle;rounded=0;orthogonalLoop=1;jettySize=auto;html=1;exitX=0.5;exitY=1;exitDx=0;exitDy=0;entryX=0.5;entryY=0;entryDx=0;entryDy=0;" edge="1" parent="1" source="51NOANYsrowO0WrMgLDv-4" target="51NOANYsrowO0WrMgLDv-6">
          <mxGeometry relative="1" as="geometry" />
        </mxCell>
        <mxCell id="51NOANYsrowO0WrMgLDv-4" value="Load balancer" style="rounded=1;whiteSpace=wrap;html=1;" vertex="1" parent="1">
          <mxGeometry x="80" y="200" width="120" height="60" as="geometry" />
        </mxCell>
        <mxCell id="51NOANYsrowO0WrMgLDv-9" style="edgeStyle=orthogonalEdgeStyle;rounded=0;orthogonalLoop=1;jettySize=auto;html=1;exitX=0.5;exitY=0;exitDx=0;exitDy=0;entryX=0.5;entryY=1;entryDx=0;entryDy=0;" edge="1" parent="1" source="51NOANYsrowO0WrMgLDv-5" target="51NOANYsrowO0WrMgLDv-2">
          <mxGeometry relative="1" as="geometry" />
        </mxCell>
        <mxCell id="51NOANYsrowO0WrMgLDv-12" style="edgeStyle=orthogonalEdgeStyle;rounded=0;orthogonalLoop=1;jettySize=auto;html=1;exitX=0;exitY=0.5;exitDx=0;exitDy=0;entryX=1;entryY=0.5;entryDx=0;entryDy=0;" edge="1" parent="1" source="51NOANYsrowO0WrMgLDv-5" target="51NOANYsrowO0WrMgLDv-3">
          <mxGeometry relative="1" as="geometry" />
        </mxCell>
        <mxCell id="51NOANYsrowO0WrMgLDv-15" style="edgeStyle=orthogonalEdgeStyle;rounded=0;orthogonalLoop=1;jettySize=auto;html=1;exitX=0.5;exitY=1;exitDx=0;exitDy=0;" edge="1" parent="1" source="51NOANYsrowO0WrMgLDv-5" target="51NOANYsrowO0WrMgLDv-7">
          <mxGeometry relative="1" as="geometry" />
        </mxCell>
        <mxCell id="51NOANYsrowO0WrMgLDv-5" value="Load balancer" style="rounded=1;whiteSpace=wrap;html=1;" vertex="1" parent="1">
          <mxGeometry x="480" y="200" width="120" height="60" as="geometry" />
        </mxCell>
        <mxCell id="51NOANYsrowO0WrMgLDv-14" style="edgeStyle=orthogonalEdgeStyle;rounded=0;orthogonalLoop=1;jettySize=auto;html=1;exitX=0.5;exitY=0;exitDx=0;exitDy=0;" edge="1" parent="1" source="51NOANYsrowO0WrMgLDv-6" target="51NOANYsrowO0WrMgLDv-4">
          <mxGeometry relative="1" as="geometry" />
        </mxCell>
        <mxCell id="51NOANYsrowO0WrMgLDv-19" style="edgeStyle=orthogonalEdgeStyle;rounded=0;orthogonalLoop=1;jettySize=auto;html=1;exitX=0.5;exitY=1;exitDx=0;exitDy=0;entryX=0.5;entryY=0;entryDx=0;entryDy=0;" edge="1" parent="1" source="51NOANYsrowO0WrMgLDv-6" target="51NOANYsrowO0WrMgLDv-17">
          <mxGeometry relative="1" as="geometry" />
        </mxCell>
        <mxCell id="51NOANYsrowO0WrMgLDv-6" value="Web socket" style="rounded=1;whiteSpace=wrap;html=1;" vertex="1" parent="1">
          <mxGeometry x="80" y="320" width="120" height="60" as="geometry" />
        </mxCell>
        <mxCell id="51NOANYsrowO0WrMgLDv-16" style="edgeStyle=orthogonalEdgeStyle;rounded=0;orthogonalLoop=1;jettySize=auto;html=1;exitX=0.5;exitY=0;exitDx=0;exitDy=0;entryX=0.5;entryY=1;entryDx=0;entryDy=0;" edge="1" parent="1" source="51NOANYsrowO0WrMgLDv-7" target="51NOANYsrowO0WrMgLDv-5">
          <mxGeometry relative="1" as="geometry" />
        </mxCell>
        <mxCell id="51NOANYsrowO0WrMgLDv-20" style="edgeStyle=orthogonalEdgeStyle;rounded=0;orthogonalLoop=1;jettySize=auto;html=1;exitX=0.5;exitY=1;exitDx=0;exitDy=0;" edge="1" parent="1" source="51NOANYsrowO0WrMgLDv-7" target="51NOANYsrowO0WrMgLDv-18">
          <mxGeometry relative="1" as="geometry" />
        </mxCell>
        <mxCell id="51NOANYsrowO0WrMgLDv-7" value="Web socket" style="rounded=1;whiteSpace=wrap;html=1;" vertex="1" parent="1">
          <mxGeometry x="480" y="320" width="120" height="60" as="geometry" />
        </mxCell>
        <mxCell id="51NOANYsrowO0WrMgLDv-21" style="edgeStyle=orthogonalEdgeStyle;rounded=0;orthogonalLoop=1;jettySize=auto;html=1;exitX=0.5;exitY=0;exitDx=0;exitDy=0;entryX=0.5;entryY=1;entryDx=0;entryDy=0;" edge="1" parent="1" source="51NOANYsrowO0WrMgLDv-17" target="51NOANYsrowO0WrMgLDv-6">
          <mxGeometry relative="1" as="geometry" />
        </mxCell>
        <mxCell id="51NOANYsrowO0WrMgLDv-24" style="edgeStyle=orthogonalEdgeStyle;rounded=0;orthogonalLoop=1;jettySize=auto;html=1;exitX=1;exitY=0.5;exitDx=0;exitDy=0;entryX=0;entryY=0.5;entryDx=0;entryDy=0;" edge="1" parent="1" source="51NOANYsrowO0WrMgLDv-17" target="51NOANYsrowO0WrMgLDv-23">
          <mxGeometry relative="1" as="geometry" />
        </mxCell>
        <mxCell id="51NOANYsrowO0WrMgLDv-32" style="edgeStyle=orthogonalEdgeStyle;rounded=0;orthogonalLoop=1;jettySize=auto;html=1;exitX=0.5;exitY=1;exitDx=0;exitDy=0;entryX=0.5;entryY=0;entryDx=0;entryDy=0;" edge="1" parent="1" source="51NOANYsrowO0WrMgLDv-17" target="51NOANYsrowO0WrMgLDv-29">
          <mxGeometry relative="1" as="geometry" />
        </mxCell>
        <mxCell id="51NOANYsrowO0WrMgLDv-17" value="Request vehicle" style="rounded=1;whiteSpace=wrap;html=1;" vertex="1" parent="1">
          <mxGeometry x="80" y="440" width="120" height="60" as="geometry" />
        </mxCell>
        <mxCell id="51NOANYsrowO0WrMgLDv-22" style="edgeStyle=orthogonalEdgeStyle;rounded=0;orthogonalLoop=1;jettySize=auto;html=1;exitX=0.5;exitY=0;exitDx=0;exitDy=0;entryX=0.5;entryY=1;entryDx=0;entryDy=0;" edge="1" parent="1" source="51NOANYsrowO0WrMgLDv-18" target="51NOANYsrowO0WrMgLDv-7">
          <mxGeometry relative="1" as="geometry" />
        </mxCell>
        <mxCell id="51NOANYsrowO0WrMgLDv-27" style="edgeStyle=orthogonalEdgeStyle;rounded=0;orthogonalLoop=1;jettySize=auto;html=1;exitX=0;exitY=0.5;exitDx=0;exitDy=0;entryX=1;entryY=0.5;entryDx=0;entryDy=0;" edge="1" parent="1" source="51NOANYsrowO0WrMgLDv-18" target="51NOANYsrowO0WrMgLDv-23">
          <mxGeometry relative="1" as="geometry" />
        </mxCell>
        <mxCell id="51NOANYsrowO0WrMgLDv-35" style="edgeStyle=orthogonalEdgeStyle;rounded=0;orthogonalLoop=1;jettySize=auto;html=1;exitX=0.5;exitY=1;exitDx=0;exitDy=0;" edge="1" parent="1" source="51NOANYsrowO0WrMgLDv-18" target="51NOANYsrowO0WrMgLDv-34">
          <mxGeometry relative="1" as="geometry" />
        </mxCell>
        <mxCell id="51NOANYsrowO0WrMgLDv-41" style="edgeStyle=orthogonalEdgeStyle;rounded=0;orthogonalLoop=1;jettySize=auto;html=1;exitX=1;exitY=0.5;exitDx=0;exitDy=0;" edge="1" parent="1" source="51NOANYsrowO0WrMgLDv-18" target="51NOANYsrowO0WrMgLDv-39">
          <mxGeometry relative="1" as="geometry" />
        </mxCell>
        <mxCell id="51NOANYsrowO0WrMgLDv-18" value="Location manager" style="rounded=1;whiteSpace=wrap;html=1;" vertex="1" parent="1">
          <mxGeometry x="480" y="440" width="120" height="60" as="geometry" />
        </mxCell>
        <mxCell id="51NOANYsrowO0WrMgLDv-25" style="edgeStyle=orthogonalEdgeStyle;rounded=0;orthogonalLoop=1;jettySize=auto;html=1;exitX=0;exitY=0.5;exitDx=0;exitDy=0;entryX=1;entryY=0.5;entryDx=0;entryDy=0;" edge="1" parent="1" source="51NOANYsrowO0WrMgLDv-23" target="51NOANYsrowO0WrMgLDv-17">
          <mxGeometry relative="1" as="geometry" />
        </mxCell>
        <mxCell id="51NOANYsrowO0WrMgLDv-26" style="edgeStyle=orthogonalEdgeStyle;rounded=0;orthogonalLoop=1;jettySize=auto;html=1;exitX=1;exitY=0.5;exitDx=0;exitDy=0;entryX=0;entryY=0.5;entryDx=0;entryDy=0;" edge="1" parent="1" source="51NOANYsrowO0WrMgLDv-23" target="51NOANYsrowO0WrMgLDv-18">
          <mxGeometry relative="1" as="geometry" />
        </mxCell>
        <mxCell id="51NOANYsrowO0WrMgLDv-30" style="edgeStyle=orthogonalEdgeStyle;rounded=0;orthogonalLoop=1;jettySize=auto;html=1;exitX=0.5;exitY=1;exitDx=0;exitDy=0;entryX=0.5;entryY=0;entryDx=0;entryDy=0;" edge="1" parent="1" source="51NOANYsrowO0WrMgLDv-23" target="51NOANYsrowO0WrMgLDv-28">
          <mxGeometry relative="1" as="geometry" />
        </mxCell>
        <mxCell id="51NOANYsrowO0WrMgLDv-23" value="Find driver" style="rounded=1;whiteSpace=wrap;html=1;" vertex="1" parent="1">
          <mxGeometry x="280" y="440" width="120" height="60" as="geometry" />
        </mxCell>
        <mxCell id="51NOANYsrowO0WrMgLDv-31" style="edgeStyle=orthogonalEdgeStyle;rounded=0;orthogonalLoop=1;jettySize=auto;html=1;exitX=0.5;exitY=0;exitDx=0;exitDy=0;" edge="1" parent="1" source="51NOANYsrowO0WrMgLDv-28" target="51NOANYsrowO0WrMgLDv-23">
          <mxGeometry relative="1" as="geometry" />
        </mxCell>
        <mxCell id="51NOANYsrowO0WrMgLDv-37" style="edgeStyle=orthogonalEdgeStyle;rounded=0;orthogonalLoop=1;jettySize=auto;html=1;exitX=0.5;exitY=1;exitDx=0;exitDy=0;entryX=0;entryY=0.5;entryDx=0;entryDy=0;" edge="1" parent="1" source="51NOANYsrowO0WrMgLDv-28" target="51NOANYsrowO0WrMgLDv-34">
          <mxGeometry relative="1" as="geometry" />
        </mxCell>
        <mxCell id="51NOANYsrowO0WrMgLDv-28" value="Trip manager" style="rounded=1;whiteSpace=wrap;html=1;" vertex="1" parent="1">
          <mxGeometry x="280" y="560" width="120" height="60" as="geometry" />
        </mxCell>
        <mxCell id="51NOANYsrowO0WrMgLDv-33" style="edgeStyle=orthogonalEdgeStyle;rounded=0;orthogonalLoop=1;jettySize=auto;html=1;exitX=0.5;exitY=0;exitDx=0;exitDy=0;" edge="1" parent="1" source="51NOANYsrowO0WrMgLDv-29" target="51NOANYsrowO0WrMgLDv-17">
          <mxGeometry relative="1" as="geometry" />
        </mxCell>
        <mxCell id="51NOANYsrowO0WrMgLDv-29" value="ETA service" style="rounded=1;whiteSpace=wrap;html=1;" vertex="1" parent="1">
          <mxGeometry x="80" y="560" width="120" height="60" as="geometry" />
        </mxCell>
        <mxCell id="51NOANYsrowO0WrMgLDv-36" style="edgeStyle=orthogonalEdgeStyle;rounded=0;orthogonalLoop=1;jettySize=auto;html=1;exitX=0.5;exitY=0;exitDx=0;exitDy=0;" edge="1" parent="1" source="51NOANYsrowO0WrMgLDv-34" target="51NOANYsrowO0WrMgLDv-18">
          <mxGeometry relative="1" as="geometry" />
        </mxCell>
        <mxCell id="51NOANYsrowO0WrMgLDv-38" style="edgeStyle=orthogonalEdgeStyle;rounded=0;orthogonalLoop=1;jettySize=auto;html=1;exitX=0;exitY=0.5;exitDx=0;exitDy=0;entryX=0.5;entryY=1;entryDx=0;entryDy=0;" edge="1" parent="1" source="51NOANYsrowO0WrMgLDv-34" target="51NOANYsrowO0WrMgLDv-28">
          <mxGeometry relative="1" as="geometry" />
        </mxCell>
        <mxCell id="51NOANYsrowO0WrMgLDv-34" value="DB" style="rounded=1;whiteSpace=wrap;html=1;" vertex="1" parent="1">
          <mxGeometry x="480" y="670" width="120" height="60" as="geometry" />
        </mxCell>
        <mxCell id="51NOANYsrowO0WrMgLDv-40" style="edgeStyle=orthogonalEdgeStyle;rounded=0;orthogonalLoop=1;jettySize=auto;html=1;exitX=0;exitY=0.5;exitDx=0;exitDy=0;" edge="1" parent="1" source="51NOANYsrowO0WrMgLDv-39" target="51NOANYsrowO0WrMgLDv-18">
          <mxGeometry relative="1" as="geometry" />
        </mxCell>
        <mxCell id="51NOANYsrowO0WrMgLDv-39" value="Quadtree server" style="rounded=1;whiteSpace=wrap;html=1;" vertex="1" parent="1">
          <mxGeometry x="680" y="440" width="120" height="60" as="geometry" />
        </mxCell>
      </root>
    </mxGraphModel>
  </diagram>
</mxfile>
